<svg width="20" height="20" viewBox="0 0 20 20" fill="none" xmlns="http://www.w3.org/2000/svg">
<path d="M9.99984 1.66663C5.40817 1.66663 1.6665 5.40829 1.6665 9.99996C1.6665 14.5916 5.40817 18.3333 9.99984 18.3333C14.5915 18.3333 18.3332 14.5916 18.3332 9.99996C18.3332 5.40829 14.5915 1.66663 9.99984 1.66663ZM13.3332 10.625H10.6248V13.3333C10.6248 13.675 10.3415 13.9583 9.99984 13.9583C9.65817 13.9583 9.37484 13.675 9.37484 13.3333V10.625H6.6665C6.32484 10.625 6.0415 10.3416 6.0415 9.99996C6.0415 9.65829 6.32484 9.37496 6.6665 9.37496H9.37484V6.66663C9.37484 6.32496 9.65817 6.04163 9.99984 6.04163C10.3415 6.04163 10.6248 6.32496 10.6248 6.66663V9.37496H13.3332C13.6748 9.37496 13.9582 9.65829 13.9582 9.99996C13.9582 10.3416 13.6748 10.625 13.3332 10.625Z" fill="#7C3AED"/>
</svg>
