<svg width="16" height="16" viewBox="0 0 16 16" fill="none" xmlns="http://www.w3.org/2000/svg">
<path d="M11.6671 12.667H6.00043C5.13501 12.6667 4.28669 12.4259 3.55028 11.9713C2.81387 11.5167 2.21838 10.8663 1.83035 10.0927C1.44231 9.31914 1.27703 8.45292 1.35296 7.59083C1.42889 6.72875 1.74305 5.90476 2.26033 5.21094C2.77761 4.51712 3.47763 3.98081 4.28217 3.66194C5.0867 3.34307 5.96406 3.2542 6.8162 3.40526C7.66834 3.55632 8.46168 3.94136 9.10759 4.51736C9.75349 5.09335 10.2265 5.8376 10.4738 6.66695H11.6671C12.4627 6.66695 13.2258 6.98302 13.7884 7.54563C14.351 8.10824 14.6671 8.8713 14.6671 9.66695C14.6671 10.4626 14.351 11.2257 13.7884 11.7883C13.2258 12.3509 12.4627 12.667 11.6671 12.667Z" stroke="#020617" stroke-opacity="0.7" stroke-width="1.5" stroke-linecap="round" stroke-linejoin="round"/>
</svg>
