<svg width="16" height="16" viewBox="0 0 16 16" fill="none" xmlns="http://www.w3.org/2000/svg">
<g clip-path="url(#clip0_163_1883)">
<path d="M10.0002 14.667V12.0003C10.0929 11.1651 9.85347 10.327 9.33352 9.66695C11.3335 9.66695 13.3335 8.33362 13.3335 6.00028C13.3869 5.16695 13.1535 4.34695 12.6669 3.66695C12.8535 2.90028 12.8535 2.10028 12.6669 1.33362C12.6669 1.33362 12.0002 1.33362 10.6669 2.33362C8.90685 2.00028 7.09352 2.00028 5.33352 2.33362C4.00019 1.33362 3.33352 1.33362 3.33352 1.33362C3.13352 2.10028 3.13352 2.90028 3.33352 3.66695C2.8481 4.34421 2.6125 5.16881 2.66685 6.00028C2.66685 8.33362 4.66685 9.66695 6.66685 9.66695C6.40685 9.99362 6.21352 10.367 6.10019 10.767C5.98685 11.167 5.95352 11.587 6.00019 12.0003V14.667" stroke="#020617" stroke-opacity="0.7" stroke-width="1.5" stroke-linecap="round" stroke-linejoin="round"/>
<path d="M5.99967 12.0002C2.99301 13.3335 2.66634 10.6669 1.33301 10.6669" stroke="#020617" stroke-opacity="0.7" stroke-width="1.5" stroke-linecap="round" stroke-linejoin="round"/>
</g>
<defs>
<clipPath id="clip0_163_1883">
<rect width="16" height="16" fill="white" transform="translate(0 0.000244141)"/>
</clipPath>
</defs>
</svg>
