<svg width="20" height="20" viewBox="0 0 20 20" fill="none" xmlns="http://www.w3.org/2000/svg">
<path d="M10.0003 12.9166C11.842 12.9166 13.3337 11.425 13.3337 9.58329V4.99996C13.3337 3.15829 11.842 1.66663 10.0003 1.66663C8.15866 1.66663 6.66699 3.15829 6.66699 4.99996V9.58329C6.66699 11.425 8.15866 12.9166 10.0003 12.9166Z" stroke="black" stroke-opacity="0.7" stroke-width="1.5" stroke-linecap="round" stroke-linejoin="round"/>
<path d="M3.625 8.04163V9.45829C3.625 12.975 6.48333 15.8333 10 15.8333C13.5167 15.8333 16.375 12.975 16.375 9.45829V8.04163" stroke="black" stroke-opacity="0.7" stroke-width="1.5" stroke-linecap="round" stroke-linejoin="round"/>
<path d="M8.8418 5.35835C9.5918 5.08335 10.4085 5.08335 11.1585 5.35835" stroke="black" stroke-opacity="0.7" stroke-width="1.5" stroke-linecap="round" stroke-linejoin="round"/>
<path d="M9.33301 7.12498C9.77467 7.00831 10.233 7.00831 10.6747 7.12498" stroke="black" stroke-opacity="0.7" stroke-width="1.5" stroke-linecap="round" stroke-linejoin="round"/>
<path d="M10 15.8334V18.3334" stroke="black" stroke-opacity="0.7" stroke-width="1.5" stroke-linecap="round" stroke-linejoin="round"/>
</svg>
