<svg width="16" height="16" viewBox="0 0 16 16" fill="none" xmlns="http://www.w3.org/2000/svg">
<path d="M10.6663 14.0002V12.6669C10.6663 11.9597 10.3854 11.2814 9.88529 10.7813C9.3852 10.2812 8.70692 10.0002 7.99967 10.0002H3.99967C3.29243 10.0002 2.61415 10.2812 2.11406 10.7813C1.61396 11.2814 1.33301 11.9597 1.33301 12.6669V14.0002" stroke="#020617" stroke-opacity="0.7" stroke-width="1.5" stroke-linecap="round" stroke-linejoin="round"/>
<path d="M5.99967 7.33358C7.47243 7.33358 8.66634 6.13967 8.66634 4.66691C8.66634 3.19415 7.47243 2.00024 5.99967 2.00024C4.52692 2.00024 3.33301 3.19415 3.33301 4.66691C3.33301 6.13967 4.52692 7.33358 5.99967 7.33358Z" stroke="#020617" stroke-opacity="0.7" stroke-width="1.5" stroke-linecap="round" stroke-linejoin="round"/>
<path d="M12.667 5.33356V9.33356" stroke="#020617" stroke-opacity="0.7" stroke-width="1.5" stroke-linecap="round" stroke-linejoin="round"/>
<path d="M14.667 7.33356H10.667" stroke="#020617" stroke-opacity="0.7" stroke-width="1.5" stroke-linecap="round" stroke-linejoin="round"/>
</svg>
